<svg xmlns="http://www.w3.org/2000/svg" xmlns:xlink="http://www.w3.org/1999/xlink" width="1920" zoomAndPan="magnify" viewBox="0 0 1440 809.999993" height="1080" preserveAspectRatio="xMidYMid meet" version="1.0"><defs><clipPath id="ccd76b272c"><path d="M 0 683.449219 L 626 683.449219 L 626 810 L 0 810 Z M 0 683.449219 " clip-rule="nonzero"/></clipPath><clipPath id="f26d94e188"><path d="M 618 683.449219 L 1438 683.449219 L 1438 810 L 618 810 Z M 618 683.449219 " clip-rule="nonzero"/></clipPath></defs><rect x="-144" width="1728" fill="#ffffff" y="-80.999999" height="971.999992" fill-opacity="1"/><rect x="-144" width="1728" fill="#ffffff" y="-80.999999" height="971.999992" fill-opacity="1"/><rect x="-144" width="1728" fill="#f4eee0" y="-80.999999" height="971.999992" fill-opacity="1"/><g clip-path="url(#ccd76b272c)"><path fill="#122d42" d="M 588.953125 800.058594 L 596.378906 800.058594 L 596.378906 807.667969 L 588.953125 807.667969 Z M 584.90625 750.289062 L 584.90625 744.875 L 596.378906 744.875 L 596.378906 756.222656 L 588.953125 756.222656 L 588.953125 751.511719 C 588.953125 750.832031 588.40625 750.289062 587.734375 750.289062 Z M 557.332031 744.875 L 568.550781 744.875 L 568.550781 750.289062 L 557.332031 750.289062 Z M 568.550781 729.160156 L 568.550781 742.425781 L 557.332031 742.425781 L 557.332031 729.160156 Z M 584.90625 729.160156 L 596.378906 729.160156 L 596.378906 742.425781 L 584.90625 742.425781 Z M 582.464844 744.875 L 582.464844 750.289062 L 570.988281 750.289062 L 570.988281 744.875 Z M 570.988281 742.425781 L 570.988281 729.160156 L 582.464844 729.160156 L 582.464844 742.425781 Z M 611.054688 742.425781 L 598.820312 742.425781 L 598.820312 729.160156 L 611.054688 729.160156 Z M 611.054688 800.058594 L 611.054688 807.667969 L 598.820312 807.667969 L 598.820312 800.058594 Z M 598.820312 786.265625 L 611.054688 786.265625 L 611.054688 797.613281 L 598.820312 797.613281 Z M 588.953125 786.265625 L 596.378906 786.265625 L 596.378906 797.613281 L 588.953125 797.613281 Z M 596.378906 770.019531 L 588.953125 770.019531 L 588.953125 758.675781 L 596.378906 758.675781 Z M 611.054688 758.675781 L 611.054688 770.019531 L 598.820312 770.019531 L 598.820312 758.675781 Z M 611.054688 756.222656 L 598.820312 756.222656 L 598.820312 744.875 L 611.054688 744.875 Z M 596.378906 783.8125 L 588.953125 783.8125 L 588.953125 772.46875 L 596.378906 772.46875 Z M 598.820312 772.46875 L 611.054688 772.46875 L 611.054688 783.8125 L 598.820312 783.8125 Z M 492.941406 741.160156 L 492.941406 723.371094 C 492.941406 722.695312 492.394531 722.148438 491.71875 722.148438 L 482.867188 722.148438 C 482.1875 722.148438 481.640625 722.695312 481.640625 723.371094 L 481.640625 741.160156 L 475.234375 741.160156 L 475.234375 713.4375 L 499.351562 713.4375 L 499.351562 741.160156 Z M 484.085938 741.160156 L 484.085938 724.59375 L 490.5 724.59375 L 490.5 741.160156 Z M 479.660156 697.84375 L 494.925781 697.84375 L 494.925781 710.988281 L 479.660156 710.988281 Z M 329.96875 747.070312 L 329.96875 755.699219 L 318.085938 749.296875 L 318.085938 740.414062 Z M 274.351562 709.71875 C 281.355469 709.71875 287.125 715.117188 287.746094 721.976562 L 260.957031 721.976562 C 261.578125 715.117188 267.347656 709.71875 274.351562 709.71875 Z M 220.757812 777.796875 L 220.757812 768.15625 L 248.335938 768.15625 L 248.335938 777.796875 Z M 248.335938 733.167969 L 248.335938 741.539062 L 220.757812 741.539062 L 220.757812 733.167969 Z M 220.757812 756.074219 L 248.335938 756.074219 L 248.335938 765.710938 L 220.757812 765.710938 Z M 248.335938 753.625 L 220.757812 753.625 L 220.757812 743.988281 L 248.335938 743.988281 Z M 178.25 796.007812 L 178.25 785.609375 L 205.832031 785.609375 L 205.832031 796.007812 Z M 205.832031 749.949219 L 205.832031 757.46875 L 178.25 757.46875 L 178.25 749.949219 Z M 178.25 772.765625 L 205.832031 772.765625 L 205.832031 783.164062 L 178.25 783.164062 Z M 205.832031 770.3125 L 178.25 770.3125 L 178.25 759.914062 L 205.832031 759.914062 Z M 120.695312 729.117188 C 120.023438 729.117188 119.476562 729.664062 119.476562 730.339844 L 119.476562 802.261719 L 95.265625 802.261719 L 95.265625 723.917969 L 129.59375 723.917969 L 129.59375 745.808594 L 121.917969 745.808594 L 121.917969 730.339844 C 121.917969 729.664062 121.371094 729.117188 120.695312 729.117188 Z M 77.515625 749.863281 L 77.515625 740.691406 L 92.824219 740.691406 L 92.824219 749.863281 Z M 27.5 737.167969 L 17.890625 731.957031 L 17.890625 719.050781 L 54.03125 700.6875 L 54.03125 717.417969 L 32.988281 717.417969 C 32.316406 717.417969 31.769531 717.960938 31.769531 718.636719 C 31.769531 719.3125 32.316406 719.859375 32.988281 719.859375 L 54.03125 719.859375 L 54.03125 731.609375 L 32.988281 731.609375 C 32.316406 731.609375 31.769531 732.15625 31.769531 732.835938 C 31.769531 733.511719 32.316406 734.058594 32.988281 734.058594 L 54.03125 734.058594 L 54.03125 745.808594 L 32.988281 745.808594 C 32.316406 745.808594 31.769531 746.355469 31.769531 747.035156 C 31.769531 747.707031 32.316406 748.257812 32.988281 748.257812 L 54.03125 748.257812 L 54.03125 760.003906 L 32.988281 760.003906 C 32.316406 760.003906 31.769531 760.550781 31.769531 761.230469 C 31.769531 761.90625 32.316406 762.453125 32.988281 762.453125 L 54.03125 762.453125 L 54.03125 774.203125 L 32.988281 774.203125 C 32.316406 774.203125 31.769531 774.75 31.769531 775.429688 C 31.769531 776.105469 32.316406 776.652344 32.988281 776.652344 L 54.03125 776.652344 L 54.03125 788.398438 L 32.988281 788.398438 C 32.316406 788.398438 31.769531 788.949219 31.769531 789.621094 C 31.769531 790.300781 32.316406 790.851562 32.988281 790.851562 L 54.03125 790.851562 L 54.03125 802.261719 L 28.140625 802.261719 L 28.140625 738.242188 C 28.140625 737.792969 27.894531 737.378906 27.5 737.167969 Z M -89.800781 732.285156 C -90.472656 732.285156 -91.019531 732.832031 -91.019531 733.511719 L -91.019531 799.894531 L -104.429688 799.894531 L -104.429688 756.160156 C -104.429688 755.484375 -104.976562 754.9375 -105.65625 754.9375 L -112.191406 754.9375 L -112.191406 705.664062 L -76.179688 705.664062 L -76.179688 732.285156 Z M 101.175781 715.339844 L 122.507812 715.339844 L 122.507812 721.300781 L 101.175781 721.300781 Z M 624.417969 807.667969 L 613.492188 807.667969 L 613.492188 727.933594 C 613.492188 727.257812 612.945312 726.710938 612.273438 726.710938 L 556.109375 726.710938 C 555.433594 726.710938 554.886719 727.257812 554.886719 727.933594 L 554.886719 750.289062 L 521.703125 750.289062 C 521.023438 750.289062 520.476562 750.832031 520.476562 751.511719 L 520.476562 796.683594 L 507.234375 796.683594 L 507.234375 742.382812 C 507.234375 741.707031 506.6875 741.160156 506.015625 741.160156 L 501.796875 741.160156 L 501.796875 712.214844 C 501.796875 711.539062 501.25 710.988281 500.574219 710.988281 L 497.367188 710.988281 L 497.367188 696.621094 C 497.367188 695.945312 496.824219 695.394531 496.144531 695.394531 L 488.511719 695.394531 L 488.511719 684.707031 C 488.511719 684.03125 487.964844 683.484375 487.292969 683.484375 C 486.617188 683.484375 486.066406 684.03125 486.066406 684.707031 L 486.066406 695.394531 L 478.433594 695.394531 C 477.761719 695.394531 477.214844 695.945312 477.214844 696.621094 L 477.214844 710.988281 L 474.007812 710.988281 C 473.335938 710.988281 472.789062 711.539062 472.789062 712.214844 L 472.789062 741.160156 L 468.316406 741.160156 C 467.640625 741.160156 467.09375 741.707031 467.09375 742.382812 L 467.09375 801.496094 L 456.382812 801.496094 L 456.382812 751 C 456.382812 750.328125 455.835938 749.777344 455.160156 749.777344 L 440.570312 749.777344 L 440.570312 728.4375 C 440.570312 727.761719 440.023438 727.214844 439.347656 727.214844 C 438.675781 727.214844 438.128906 727.761719 438.128906 728.4375 L 438.128906 749.777344 L 424.046875 749.777344 C 423.371094 749.777344 422.824219 750.328125 422.824219 751 L 422.824219 801.496094 L 412.363281 801.496094 L 412.363281 731.484375 C 412.363281 730.808594 411.816406 730.261719 411.136719 730.261719 L 395.414062 730.261719 L 395.414062 712.46875 C 395.414062 711.789062 394.863281 711.242188 394.1875 711.242188 C 393.515625 711.242188 392.96875 711.789062 392.96875 712.46875 L 392.96875 730.261719 L 376.976562 730.261719 C 376.296875 730.261719 375.75 730.808594 375.75 731.484375 L 375.75 797.1875 L 353.414062 797.1875 L 353.414062 728.015625 C 353.414062 727.59375 353.191406 727.203125 352.832031 726.976562 L 317.511719 704.964844 C 317.132812 704.730469 316.660156 704.71875 316.273438 704.933594 C 315.886719 705.148438 315.644531 705.558594 315.644531 706 L 315.644531 747.980469 L 303.097656 741.222656 C 302.71875 741.015625 302.257812 741.027344 301.890625 741.25 C 301.519531 741.46875 301.296875 741.867188 301.296875 742.296875 L 301.296875 771.523438 C 301.296875 771.527344 301.296875 771.53125 301.296875 771.535156 L 301.296875 807.667969 L 289.445312 807.667969 L 281.894531 737.226562 C 286.996094 734.460938 290.246094 729.0625 290.246094 723.199219 C 290.246094 714.832031 283.769531 707.949219 275.574219 707.328125 L 275.574219 691.679688 C 275.574219 691.003906 275.027344 690.453125 274.351562 690.453125 C 273.675781 690.453125 273.128906 691.003906 273.128906 691.679688 L 273.128906 707.328125 C 264.933594 707.949219 258.457031 714.832031 258.457031 723.199219 C 258.457031 729.332031 262.011719 734.957031 267.527344 737.589844 L 262.253906 807.667969 L 250.78125 807.667969 L 250.78125 731.945312 C 250.78125 731.273438 250.234375 730.722656 249.554688 730.722656 L 235.765625 730.722656 L 235.765625 715.046875 C 235.765625 714.371094 235.21875 713.824219 234.546875 713.824219 C 233.871094 713.824219 233.324219 714.371094 233.324219 715.046875 L 233.324219 730.722656 L 219.535156 730.722656 C 218.859375 730.722656 218.3125 731.273438 218.3125 731.945312 L 218.3125 799.554688 L 208.273438 799.554688 L 208.273438 748.71875 C 208.273438 748.046875 207.726562 747.496094 207.050781 747.496094 L 193.265625 747.496094 L 193.265625 732.835938 C 193.265625 732.15625 192.71875 731.609375 192.039062 731.609375 C 191.367188 731.609375 190.820312 732.15625 190.820312 732.835938 L 190.820312 747.496094 L 177.03125 747.496094 C 176.359375 747.496094 175.8125 748.046875 175.8125 748.71875 L 175.8125 802.261719 L 161.386719 802.261719 L 161.386719 747.035156 C 161.386719 746.355469 160.839844 745.808594 160.164062 745.808594 L 132.039062 745.808594 L 132.039062 722.695312 C 132.039062 722.015625 131.492188 721.46875 130.816406 721.46875 L 124.953125 721.46875 L 124.953125 714.117188 C 124.953125 713.4375 124.40625 712.890625 123.734375 712.890625 L 113.0625 712.890625 L 113.0625 697.253906 C 113.0625 696.582031 112.515625 696.03125 111.839844 696.03125 C 111.167969 696.03125 110.621094 696.582031 110.621094 697.253906 L 110.621094 712.890625 L 99.949219 712.890625 C 99.277344 712.890625 98.730469 713.4375 98.730469 714.117188 L 98.730469 721.46875 L 94.046875 721.46875 C 93.371094 721.46875 92.824219 722.015625 92.824219 722.695312 L 92.824219 738.242188 L 86.394531 738.242188 L 86.394531 728.4375 C 86.394531 727.761719 85.847656 727.214844 85.167969 727.214844 C 84.496094 727.214844 83.949219 727.761719 83.949219 728.4375 L 83.949219 738.242188 L 76.296875 738.242188 C 75.617188 738.242188 75.070312 738.792969 75.070312 739.46875 L 75.070312 749.863281 L 71.78125 749.863281 C 71.109375 749.863281 70.5625 750.410156 70.5625 751.089844 L 70.5625 802.261719 L 56.476562 802.261719 L 56.476562 698.695312 C 56.476562 698.265625 56.257812 697.875 55.894531 697.648438 C 55.53125 697.429688 55.078125 697.40625 54.699219 697.601562 L 16.117188 717.210938 C 15.707031 717.417969 15.449219 717.835938 15.449219 718.296875 L 15.449219 730.628906 L -1.171875 721.617188 C -1.554688 721.410156 -2.015625 721.421875 -2.378906 721.640625 C -2.746094 721.863281 -2.976562 722.265625 -2.976562 722.695312 L -2.976562 802.933594 L -14.027344 802.933594 L -14.027344 747.035156 C -14.027344 746.59375 -14.261719 746.191406 -14.640625 745.972656 C -15.019531 745.75 -15.484375 745.753906 -15.863281 745.976562 L -42.511719 761.523438 C -42.886719 761.742188 -43.121094 762.144531 -43.121094 762.582031 L -43.121094 802.933594 L -53.492188 802.933594 L -53.492188 733.511719 C -53.492188 732.832031 -54.039062 732.285156 -54.71875 732.285156 L -73.734375 732.285156 L -73.734375 704.441406 C -73.734375 703.761719 -74.28125 703.21875 -74.957031 703.21875 L -113.410156 703.21875 C -114.089844 703.21875 -114.636719 703.761719 -114.636719 704.441406 L -114.636719 754.9375 L -135.003906 754.9375 C -135.675781 754.9375 -136.222656 755.484375 -136.222656 756.160156 L -136.222656 807.667969 L -141.535156 807.667969 L -141.535156 777.453125 C -141.535156 777.082031 -141.710938 776.730469 -142 776.496094 L -158.527344 763.316406 C -158.96875 762.964844 -159.585938 762.960938 -160.035156 763.296875 L -177.234375 776.484375 C -177.539062 776.714844 -177.71875 777.074219 -177.71875 777.453125 L -177.71875 807.667969 L -192.347656 807.667969 C -193.019531 807.667969 -193.566406 808.214844 -193.566406 808.894531 C -193.566406 809.566406 -193.019531 810.117188 -192.347656 810.117188 L -176.492188 810.117188 C -175.820312 810.117188 -175.273438 809.566406 -175.273438 808.894531 L -175.273438 778.058594 L -159.304688 765.824219 L -143.980469 778.042969 L -143.980469 808.894531 C -143.980469 809.566406 -143.433594 810.117188 -142.761719 810.117188 L -135.003906 810.117188 C -134.328125 810.117188 -133.78125 809.566406 -133.78125 808.894531 L -133.78125 757.386719 L -106.875 757.386719 L -106.875 801.117188 C -106.875 801.792969 -106.328125 802.339844 -105.65625 802.339844 L -89.800781 802.339844 C -89.121094 802.339844 -88.574219 801.792969 -88.574219 801.117188 L -88.574219 788.820312 L -71.753906 788.820312 C -71.078125 788.820312 -70.53125 788.273438 -70.53125 787.597656 C -70.53125 786.917969 -71.078125 786.371094 -71.753906 786.371094 L -88.574219 786.371094 L -88.574219 775.296875 L -71.753906 775.296875 C -71.078125 775.296875 -70.53125 774.75 -70.53125 774.074219 C -70.53125 773.398438 -71.078125 772.847656 -71.753906 772.847656 L -88.574219 772.847656 L -88.574219 761.773438 L -71.753906 761.773438 C -71.078125 761.773438 -70.53125 761.230469 -70.53125 760.550781 C -70.53125 759.878906 -71.078125 759.328125 -71.753906 759.328125 L -88.574219 759.328125 L -88.574219 748.257812 L -71.753906 748.257812 C -71.078125 748.257812 -70.53125 747.707031 -70.53125 747.035156 C -70.53125 746.355469 -71.078125 745.808594 -71.753906 745.808594 L -88.574219 745.808594 L -88.574219 734.734375 L -55.9375 734.734375 L -55.9375 804.164062 C -55.9375 804.835938 -55.390625 805.386719 -54.71875 805.386719 L -41.898438 805.386719 C -41.222656 805.386719 -40.675781 804.835938 -40.675781 804.164062 L -40.675781 763.289062 L -16.472656 749.160156 L -16.472656 764.566406 L -30.765625 764.566406 C -31.441406 764.566406 -31.988281 765.121094 -31.988281 765.792969 C -31.988281 766.46875 -31.441406 767.015625 -30.765625 767.015625 L -16.472656 767.015625 L -16.472656 774.371094 L -30.765625 774.371094 C -31.441406 774.371094 -31.988281 774.917969 -31.988281 775.59375 C -31.988281 776.273438 -31.441406 776.820312 -30.765625 776.820312 L -16.472656 776.820312 L -16.472656 784.175781 L -30.765625 784.175781 C -31.441406 784.175781 -31.988281 784.722656 -31.988281 785.398438 C -31.988281 786.078125 -31.441406 786.625 -30.765625 786.625 L -16.472656 786.625 L -16.472656 793.980469 L -30.765625 793.980469 C -31.441406 793.980469 -31.988281 794.527344 -31.988281 795.203125 C -31.988281 795.875 -31.441406 796.425781 -30.765625 796.425781 L -16.472656 796.425781 L -16.472656 804.164062 C -16.472656 804.835938 -15.925781 805.386719 -15.246094 805.386719 L -1.757812 805.386719 C -1.078125 805.386719 -0.53125 804.835938 -0.53125 804.164062 L -0.53125 793.382812 L 15.28125 793.382812 C 15.953125 793.382812 16.5 792.835938 16.5 792.160156 C 16.5 791.480469 15.953125 790.933594 15.28125 790.933594 L -0.53125 790.933594 L -0.53125 776.820312 L 15.28125 776.820312 C 15.953125 776.820312 16.5 776.273438 16.5 775.59375 C 16.5 774.917969 15.953125 774.371094 15.28125 774.371094 L -0.53125 774.371094 L -0.53125 760.257812 L 15.28125 760.257812 C 15.953125 760.257812 16.5 759.710938 16.5 759.035156 C 16.5 758.355469 15.953125 757.808594 15.28125 757.808594 L -0.53125 757.808594 L -0.53125 743.695312 L 15.28125 743.695312 C 15.953125 743.695312 16.5 743.144531 16.5 742.46875 C 16.5 741.792969 15.953125 741.246094 15.28125 741.246094 L -0.53125 741.246094 L -0.53125 724.746094 L 25.695312 738.972656 L 25.695312 803.484375 C 25.695312 804.164062 26.242188 804.710938 26.917969 804.710938 L 71.78125 804.710938 C 72.460938 804.710938 73.007812 804.164062 73.007812 803.484375 L 73.007812 752.3125 L 92.824219 752.3125 L 92.824219 803.484375 C 92.824219 804.164062 93.371094 804.710938 94.046875 804.710938 L 120.695312 804.710938 C 121.371094 804.710938 121.917969 804.164062 121.917969 803.484375 L 121.917969 748.257812 L 158.941406 748.257812 L 158.941406 803.484375 C 158.941406 804.164062 159.488281 804.710938 160.164062 804.710938 L 177.03125 804.710938 C 177.703125 804.710938 178.25 804.164062 178.25 803.484375 L 178.25 798.457031 L 205.832031 798.457031 L 205.832031 800.78125 C 205.832031 801.453125 206.378906 802.003906 207.050781 802.003906 L 219.535156 802.003906 C 220.210938 802.003906 220.757812 801.453125 220.757812 800.78125 L 220.757812 780.238281 L 248.335938 780.238281 L 248.335938 808.894531 C 248.335938 809.566406 248.882812 810.117188 249.554688 810.117188 L 263.386719 810.117188 C 264.027344 810.117188 264.554688 809.625 264.605469 808.980469 L 270.007812 737.277344 C 270.042969 736.765625 269.757812 736.308594 269.328125 736.09375 C 269.214844 735.816406 269.003906 735.582031 268.710938 735.445312 C 264.335938 733.417969 261.390625 729.179688 260.957031 724.421875 L 287.746094 724.421875 C 287.3125 729.179688 284.359375 733.417969 279.984375 735.445312 C 279.375 735.730469 279.105469 736.457031 279.386719 737.070312 C 279.402344 737.09375 279.414062 737.113281 279.425781 737.136719 L 287.132812 809.023438 C 287.203125 809.648438 287.726562 810.117188 288.347656 810.117188 L 302.515625 810.117188 C 303.195312 810.117188 303.738281 809.566406 303.738281 808.894531 L 303.738281 773.402344 L 314.28125 777.972656 L 314.28125 808.894531 C 314.28125 809.566406 314.828125 810.117188 315.507812 810.117188 C 316.179688 810.117188 316.726562 809.566406 316.726562 808.894531 L 316.726562 777.171875 C 316.726562 776.679688 316.4375 776.238281 315.988281 776.046875 L 303.738281 770.734375 L 303.738281 759.375 L 324.148438 769.023438 L 324.148438 809.0625 C 324.148438 809.738281 324.695312 810.285156 325.371094 810.285156 C 326.046875 810.285156 326.59375 809.738281 326.59375 809.0625 L 326.59375 768.242188 C 326.59375 767.769531 326.320312 767.339844 325.894531 767.136719 L 303.738281 756.667969 L 303.738281 744.351562 L 332.667969 759.933594 L 332.667969 808.894531 C 332.667969 809.566406 333.214844 810.117188 333.890625 810.117188 C 334.566406 810.117188 335.113281 809.566406 335.113281 808.894531 L 335.113281 759.199219 C 335.113281 758.75 334.863281 758.335938 334.464844 758.121094 L 332.414062 757.015625 L 332.414062 746.355469 C 332.414062 745.914062 332.175781 745.503906 331.789062 745.285156 L 318.085938 737.609375 L 318.085938 725.476562 L 339.835938 737.898438 L 339.835938 797.230469 C 339.835938 797.902344 340.382812 798.457031 341.058594 798.457031 C 341.730469 798.457031 342.277344 797.902344 342.277344 797.230469 L 342.277344 737.1875 C 342.277344 736.746094 342.042969 736.339844 341.660156 736.125 L 318.085938 722.65625 L 318.085938 708.207031 L 350.96875 728.695312 L 350.96875 798.414062 C 350.96875 799.089844 351.515625 799.636719 352.191406 799.636719 L 376.976562 799.636719 C 377.648438 799.636719 378.195312 799.089844 378.195312 798.414062 L 378.195312 732.707031 L 409.917969 732.707031 L 409.917969 802.722656 C 409.917969 803.398438 410.464844 803.945312 411.136719 803.945312 L 424.046875 803.945312 C 424.722656 803.945312 425.269531 803.398438 425.269531 802.722656 L 425.269531 752.230469 L 453.941406 752.230469 L 453.941406 802.722656 C 453.941406 803.398438 454.488281 803.945312 455.160156 803.945312 L 468.316406 803.945312 C 468.992188 803.945312 469.539062 803.398438 469.539062 802.722656 L 469.539062 743.609375 L 504.792969 743.609375 L 504.792969 797.902344 C 504.792969 798.582031 505.339844 799.132812 506.015625 799.132812 L 521.703125 799.132812 C 522.375 799.132812 522.921875 798.582031 522.921875 797.902344 L 522.921875 752.734375 L 586.511719 752.734375 L 586.511719 808.894531 C 586.511719 809.566406 587.058594 810.117188 587.734375 810.117188 L 624.417969 810.117188 C 625.089844 810.117188 625.636719 809.566406 625.636719 808.894531 C 625.636719 808.214844 625.089844 807.667969 624.417969 807.667969 " fill-opacity="1" fill-rule="nonzero"/></g><path fill="#122d42" d="M 80.722656 757.257812 C 80.046875 757.257812 79.5 757.808594 79.5 758.480469 L 79.5 793.171875 C 79.5 793.847656 80.046875 794.394531 80.722656 794.394531 C 81.398438 794.394531 81.945312 793.847656 81.945312 793.171875 L 81.945312 758.480469 C 81.945312 757.808594 81.398438 757.257812 80.722656 757.257812 " fill-opacity="1" fill-rule="nonzero"/><path fill="#122d42" d="M 104.757812 729.117188 C 104.082031 729.117188 103.535156 729.664062 103.535156 730.339844 L 103.535156 787.597656 C 103.535156 788.273438 104.082031 788.820312 104.757812 788.820312 C 105.433594 788.820312 105.980469 788.273438 105.980469 787.597656 L 105.980469 730.339844 C 105.980469 729.664062 105.433594 729.117188 104.757812 729.117188 " fill-opacity="1" fill-rule="nonzero"/><path fill="#122d42" d="M 129.804688 754.9375 C 129.128906 754.9375 128.585938 755.484375 128.585938 756.160156 L 128.585938 761.230469 C 128.585938 761.90625 129.128906 762.453125 129.804688 762.453125 C 130.476562 762.453125 131.023438 761.90625 131.023438 761.230469 L 131.023438 756.160156 C 131.023438 755.484375 130.476562 754.9375 129.804688 754.9375 " fill-opacity="1" fill-rule="nonzero"/><path fill="#122d42" d="M 136.886719 754.9375 C 136.214844 754.9375 135.667969 755.484375 135.667969 756.160156 L 135.667969 761.230469 C 135.667969 761.90625 136.214844 762.453125 136.886719 762.453125 C 137.566406 762.453125 138.113281 761.90625 138.113281 761.230469 L 138.113281 756.160156 C 138.113281 755.484375 137.566406 754.9375 136.886719 754.9375 " fill-opacity="1" fill-rule="nonzero"/><path fill="#122d42" d="M 143.972656 754.9375 C 143.296875 754.9375 142.75 755.484375 142.75 756.160156 L 142.75 761.230469 C 142.75 761.90625 143.296875 762.453125 143.972656 762.453125 C 144.648438 762.453125 145.195312 761.90625 145.195312 761.230469 L 145.195312 756.160156 C 145.195312 755.484375 144.648438 754.9375 143.972656 754.9375 " fill-opacity="1" fill-rule="nonzero"/><path fill="#122d42" d="M 151.054688 754.9375 C 150.382812 754.9375 149.835938 755.484375 149.835938 756.160156 L 149.835938 761.230469 C 149.835938 761.90625 150.382812 762.453125 151.054688 762.453125 C 151.734375 762.453125 152.28125 761.90625 152.28125 761.230469 L 152.28125 756.160156 C 152.28125 755.484375 151.734375 754.9375 151.054688 754.9375 " fill-opacity="1" fill-rule="nonzero"/><path fill="#122d42" d="M 129.804688 770.3125 C 129.128906 770.3125 128.585938 770.863281 128.585938 771.542969 L 128.585938 776.609375 C 128.585938 777.285156 129.128906 777.832031 129.804688 777.832031 C 130.476562 777.832031 131.023438 777.285156 131.023438 776.609375 L 131.023438 771.542969 C 131.023438 770.863281 130.476562 770.3125 129.804688 770.3125 " fill-opacity="1" fill-rule="nonzero"/><path fill="#122d42" d="M 136.886719 770.3125 C 136.214844 770.3125 135.667969 770.863281 135.667969 771.542969 L 135.667969 776.609375 C 135.667969 777.285156 136.214844 777.832031 136.886719 777.832031 C 137.566406 777.832031 138.113281 777.285156 138.113281 776.609375 L 138.113281 771.542969 C 138.113281 770.863281 137.566406 770.3125 136.886719 770.3125 " fill-opacity="1" fill-rule="nonzero"/><path fill="#122d42" d="M 143.972656 770.3125 C 143.296875 770.3125 142.75 770.863281 142.75 771.542969 L 142.75 776.609375 C 142.75 777.285156 143.296875 777.832031 143.972656 777.832031 C 144.648438 777.832031 145.195312 777.285156 145.195312 776.609375 L 145.195312 771.542969 C 145.195312 770.863281 144.648438 770.3125 143.972656 770.3125 " fill-opacity="1" fill-rule="nonzero"/><path fill="#122d42" d="M 151.054688 770.3125 C 150.382812 770.3125 149.835938 770.863281 149.835938 771.542969 L 149.835938 776.609375 C 149.835938 777.285156 150.382812 777.832031 151.054688 777.832031 C 151.734375 777.832031 152.28125 777.285156 152.28125 776.609375 L 152.28125 771.542969 C 152.28125 770.863281 151.734375 770.3125 151.054688 770.3125 " fill-opacity="1" fill-rule="nonzero"/><path fill="#122d42" d="M 129.804688 785.699219 C 129.128906 785.699219 128.585938 786.246094 128.585938 786.917969 L 128.585938 791.988281 C 128.585938 792.667969 129.128906 793.214844 129.804688 793.214844 C 130.476562 793.214844 131.023438 792.667969 131.023438 791.988281 L 131.023438 786.917969 C 131.023438 786.246094 130.476562 785.699219 129.804688 785.699219 " fill-opacity="1" fill-rule="nonzero"/><path fill="#122d42" d="M 136.886719 785.699219 C 136.214844 785.699219 135.667969 786.246094 135.667969 786.917969 L 135.667969 791.988281 C 135.667969 792.667969 136.214844 793.214844 136.886719 793.214844 C 137.566406 793.214844 138.113281 792.667969 138.113281 791.988281 L 138.113281 786.917969 C 138.113281 786.246094 137.566406 785.699219 136.886719 785.699219 " fill-opacity="1" fill-rule="nonzero"/><path fill="#122d42" d="M 143.972656 785.699219 C 143.296875 785.699219 142.75 786.246094 142.75 786.917969 L 142.75 791.988281 C 142.75 792.667969 143.296875 793.214844 143.972656 793.214844 C 144.648438 793.214844 145.195312 792.667969 145.195312 791.988281 L 145.195312 786.917969 C 145.195312 786.246094 144.648438 785.699219 143.972656 785.699219 " fill-opacity="1" fill-rule="nonzero"/><path fill="#122d42" d="M 151.054688 785.699219 C 150.382812 785.699219 149.835938 786.246094 149.835938 786.917969 L 149.835938 791.988281 C 149.835938 792.667969 150.382812 793.214844 151.054688 793.214844 C 151.734375 793.214844 152.28125 792.667969 152.28125 791.988281 L 152.28125 786.917969 C 152.28125 786.246094 151.734375 785.699219 151.054688 785.699219 " fill-opacity="1" fill-rule="nonzero"/><path fill="#122d42" d="M 401.90625 741.285156 L 386.472656 741.285156 C 385.796875 741.285156 385.25 741.835938 385.25 742.507812 C 385.25 743.1875 385.796875 743.738281 386.472656 743.738281 L 401.90625 743.738281 C 402.578125 743.738281 403.125 743.1875 403.125 742.507812 C 403.125 741.835938 402.578125 741.285156 401.90625 741.285156 " fill-opacity="1" fill-rule="nonzero"/><path fill="#122d42" d="M 401.90625 750.796875 L 386.472656 750.796875 C 385.796875 750.796875 385.25 751.34375 385.25 752.019531 C 385.25 752.691406 385.796875 753.242188 386.472656 753.242188 L 401.90625 753.242188 C 402.578125 753.242188 403.125 752.691406 403.125 752.019531 C 403.125 751.34375 402.578125 750.796875 401.90625 750.796875 " fill-opacity="1" fill-rule="nonzero"/><path fill="#122d42" d="M 401.90625 760.300781 L 386.472656 760.300781 C 385.796875 760.300781 385.25 760.847656 385.25 761.527344 C 385.25 762.203125 385.796875 762.75 386.472656 762.75 L 401.90625 762.75 C 402.578125 762.75 403.125 762.203125 403.125 761.527344 C 403.125 760.847656 402.578125 760.300781 401.90625 760.300781 " fill-opacity="1" fill-rule="nonzero"/><path fill="#122d42" d="M 401.90625 769.808594 L 386.472656 769.808594 C 385.796875 769.808594 385.25 770.355469 385.25 771.03125 C 385.25 771.710938 385.796875 772.253906 386.472656 772.253906 L 401.90625 772.253906 C 402.578125 772.253906 403.125 771.710938 403.125 771.03125 C 403.125 770.355469 402.578125 769.808594 401.90625 769.808594 " fill-opacity="1" fill-rule="nonzero"/><path fill="#122d42" d="M 401.90625 779.316406 L 386.472656 779.316406 C 385.796875 779.316406 385.25 779.867188 385.25 780.539062 C 385.25 781.214844 385.796875 781.761719 386.472656 781.761719 L 401.90625 781.761719 C 402.578125 781.761719 403.125 781.214844 403.125 780.539062 C 403.125 779.867188 402.578125 779.316406 401.90625 779.316406 " fill-opacity="1" fill-rule="nonzero"/><path fill="#122d42" d="M 401.90625 788.820312 L 386.472656 788.820312 C 385.796875 788.820312 385.25 789.371094 385.25 790.050781 C 385.25 790.722656 385.796875 791.269531 386.472656 791.269531 L 401.90625 791.269531 C 402.578125 791.269531 403.125 790.722656 403.125 790.050781 C 403.125 789.371094 402.578125 788.820312 401.90625 788.820312 " fill-opacity="1" fill-rule="nonzero"/><path fill="#122d42" d="M 445.082031 802.007812 L 433.613281 802.007812 L 433.613281 764.398438 L 445.082031 764.398438 Z M 446.308594 761.949219 L 432.390625 761.949219 C 431.714844 761.949219 431.171875 762.496094 431.171875 763.175781 L 431.171875 803.230469 C 431.171875 803.910156 431.714844 804.453125 432.390625 804.453125 L 446.308594 804.453125 C 446.980469 804.453125 447.527344 803.910156 447.527344 803.230469 L 447.527344 763.175781 C 447.527344 762.496094 446.980469 761.949219 446.308594 761.949219 " fill-opacity="1" fill-rule="nonzero"/><path fill="#122d42" d="M 494.925781 802.007812 L 479.660156 802.007812 L 479.660156 757.386719 L 494.925781 757.386719 Z M 496.144531 754.9375 L 478.433594 754.9375 C 477.761719 754.9375 477.214844 755.484375 477.214844 756.160156 L 477.214844 803.230469 C 477.214844 803.910156 477.761719 804.453125 478.433594 804.453125 L 496.144531 804.453125 C 496.824219 804.453125 497.367188 803.910156 497.367188 803.230469 L 497.367188 756.160156 C 497.367188 755.484375 496.824219 754.9375 496.144531 754.9375 " fill-opacity="1" fill-rule="nonzero"/><path fill="#122d42" d="M 535.359375 761.949219 L 528.53125 761.949219 C 527.851562 761.949219 527.3125 762.496094 527.3125 763.175781 C 527.3125 763.851562 527.851562 764.398438 528.53125 764.398438 L 535.359375 764.398438 C 536.039062 764.398438 536.585938 763.851562 536.585938 763.175781 C 536.585938 762.496094 536.039062 761.949219 535.359375 761.949219 " fill-opacity="1" fill-rule="nonzero"/><path fill="#122d42" d="M 550.796875 761.949219 L 543.960938 761.949219 C 543.289062 761.949219 542.742188 762.496094 542.742188 763.175781 C 542.742188 763.851562 543.289062 764.398438 543.960938 764.398438 L 550.796875 764.398438 C 551.46875 764.398438 552.015625 763.851562 552.015625 763.175781 C 552.015625 762.496094 551.46875 761.949219 550.796875 761.949219 " fill-opacity="1" fill-rule="nonzero"/><path fill="#122d42" d="M 566.226562 761.949219 L 559.394531 761.949219 C 558.722656 761.949219 558.175781 762.496094 558.175781 763.175781 C 558.175781 763.851562 558.722656 764.398438 559.394531 764.398438 L 566.226562 764.398438 C 566.902344 764.398438 567.449219 763.851562 567.449219 763.175781 C 567.449219 762.496094 566.902344 761.949219 566.226562 761.949219 " fill-opacity="1" fill-rule="nonzero"/><path fill="#122d42" d="M 581.660156 761.949219 L 574.832031 761.949219 C 574.152344 761.949219 573.605469 762.496094 573.605469 763.175781 C 573.605469 763.851562 574.152344 764.398438 574.832031 764.398438 L 581.660156 764.398438 C 582.332031 764.398438 582.878906 763.851562 582.878906 763.175781 C 582.878906 762.496094 582.332031 761.949219 581.660156 761.949219 " fill-opacity="1" fill-rule="nonzero"/><path fill="#122d42" d="M 535.359375 774.625 L 528.53125 774.625 C 527.851562 774.625 527.3125 775.171875 527.3125 775.851562 C 527.3125 776.527344 527.851562 777.074219 528.53125 777.074219 L 535.359375 777.074219 C 536.039062 777.074219 536.585938 776.527344 536.585938 775.851562 C 536.585938 775.171875 536.039062 774.625 535.359375 774.625 " fill-opacity="1" fill-rule="nonzero"/><path fill="#122d42" d="M 550.796875 774.625 L 543.960938 774.625 C 543.289062 774.625 542.742188 775.171875 542.742188 775.851562 C 542.742188 776.527344 543.289062 777.074219 543.960938 777.074219 L 550.796875 777.074219 C 551.46875 777.074219 552.015625 776.527344 552.015625 775.851562 C 552.015625 775.171875 551.46875 774.625 550.796875 774.625 " fill-opacity="1" fill-rule="nonzero"/><path fill="#122d42" d="M 566.226562 774.625 L 559.394531 774.625 C 558.722656 774.625 558.175781 775.171875 558.175781 775.851562 C 558.175781 776.527344 558.722656 777.074219 559.394531 777.074219 L 566.226562 777.074219 C 566.902344 777.074219 567.449219 776.527344 567.449219 775.851562 C 567.449219 775.171875 566.902344 774.625 566.226562 774.625 " fill-opacity="1" fill-rule="nonzero"/><path fill="#122d42" d="M 581.660156 774.625 L 574.832031 774.625 C 574.152344 774.625 573.605469 775.171875 573.605469 775.851562 C 573.605469 776.527344 574.152344 777.074219 574.832031 777.074219 L 581.660156 777.074219 C 582.332031 777.074219 582.878906 776.527344 582.878906 775.851562 C 582.878906 775.171875 582.332031 774.625 581.660156 774.625 " fill-opacity="1" fill-rule="nonzero"/><path fill="#122d42" d="M 535.359375 787.304688 L 528.53125 787.304688 C 527.851562 787.304688 527.3125 787.847656 527.3125 788.527344 C 527.3125 789.199219 527.851562 789.75 528.53125 789.75 L 535.359375 789.75 C 536.039062 789.75 536.585938 789.199219 536.585938 788.527344 C 536.585938 787.847656 536.039062 787.304688 535.359375 787.304688 " fill-opacity="1" fill-rule="nonzero"/><path fill="#122d42" d="M 550.796875 787.304688 L 543.960938 787.304688 C 543.289062 787.304688 542.742188 787.847656 542.742188 788.527344 C 542.742188 789.199219 543.289062 789.75 543.960938 789.75 L 550.796875 789.75 C 551.46875 789.75 552.015625 789.199219 552.015625 788.527344 C 552.015625 787.847656 551.46875 787.304688 550.796875 787.304688 " fill-opacity="1" fill-rule="nonzero"/><path fill="#122d42" d="M 566.226562 787.304688 L 559.394531 787.304688 C 558.722656 787.304688 558.175781 787.847656 558.175781 788.527344 C 558.175781 789.199219 558.722656 789.75 559.394531 789.75 L 566.226562 789.75 C 566.902344 789.75 567.449219 789.199219 567.449219 788.527344 C 567.449219 787.847656 566.902344 787.304688 566.226562 787.304688 " fill-opacity="1" fill-rule="nonzero"/><path fill="#122d42" d="M 581.660156 787.304688 L 574.832031 787.304688 C 574.152344 787.304688 573.605469 787.847656 573.605469 788.527344 C 573.605469 789.199219 574.152344 789.75 574.832031 789.75 L 581.660156 789.75 C 582.332031 789.75 582.878906 789.199219 582.878906 788.527344 C 582.878906 787.847656 582.332031 787.304688 581.660156 787.304688 " fill-opacity="1" fill-rule="nonzero"/><g clip-path="url(#f26d94e188)"><path fill="#122d42" d="M 1401.199219 800.058594 L 1408.625 800.058594 L 1408.625 807.667969 L 1401.199219 807.667969 Z M 1397.152344 750.289062 L 1397.152344 744.875 L 1408.625 744.875 L 1408.625 756.222656 L 1401.199219 756.222656 L 1401.199219 751.511719 C 1401.199219 750.832031 1400.652344 750.289062 1399.980469 750.289062 Z M 1369.578125 744.875 L 1380.792969 744.875 L 1380.792969 750.289062 L 1369.578125 750.289062 Z M 1380.792969 729.160156 L 1380.792969 742.425781 L 1369.578125 742.425781 L 1369.578125 729.160156 Z M 1397.152344 729.160156 L 1408.625 729.160156 L 1408.625 742.425781 L 1397.152344 742.425781 Z M 1394.710938 744.875 L 1394.710938 750.289062 L 1383.234375 750.289062 L 1383.234375 744.875 Z M 1383.234375 742.425781 L 1383.234375 729.160156 L 1394.710938 729.160156 L 1394.710938 742.425781 Z M 1423.300781 742.425781 L 1411.066406 742.425781 L 1411.066406 729.160156 L 1423.300781 729.160156 Z M 1423.300781 800.058594 L 1423.300781 807.667969 L 1411.066406 807.667969 L 1411.066406 800.058594 Z M 1411.066406 786.265625 L 1423.300781 786.265625 L 1423.300781 797.613281 L 1411.066406 797.613281 Z M 1401.199219 786.265625 L 1408.625 786.265625 L 1408.625 797.613281 L 1401.199219 797.613281 Z M 1408.625 770.019531 L 1401.199219 770.019531 L 1401.199219 758.675781 L 1408.625 758.675781 Z M 1423.300781 758.675781 L 1423.300781 770.019531 L 1411.066406 770.019531 L 1411.066406 758.675781 Z M 1423.300781 756.222656 L 1411.066406 756.222656 L 1411.066406 744.875 L 1423.300781 744.875 Z M 1408.625 783.8125 L 1401.199219 783.8125 L 1401.199219 772.46875 L 1408.625 772.46875 Z M 1411.066406 772.46875 L 1423.300781 772.46875 L 1423.300781 783.8125 L 1411.066406 783.8125 Z M 1305.1875 741.160156 L 1305.1875 723.371094 C 1305.1875 722.695312 1304.640625 722.148438 1303.964844 722.148438 L 1295.113281 722.148438 C 1294.433594 722.148438 1293.886719 722.695312 1293.886719 723.371094 L 1293.886719 741.160156 L 1287.480469 741.160156 L 1287.480469 713.4375 L 1311.597656 713.4375 L 1311.597656 741.160156 Z M 1296.332031 741.160156 L 1296.332031 724.59375 L 1302.746094 724.59375 L 1302.746094 741.160156 Z M 1291.90625 697.84375 L 1307.171875 697.84375 L 1307.171875 710.988281 L 1291.90625 710.988281 Z M 1142.214844 747.070312 L 1142.214844 755.699219 L 1130.332031 749.296875 L 1130.332031 740.414062 Z M 1086.597656 709.71875 C 1093.601562 709.71875 1099.371094 715.117188 1099.992188 721.976562 L 1073.203125 721.976562 C 1073.824219 715.117188 1079.59375 709.71875 1086.597656 709.71875 Z M 1033.003906 777.796875 L 1033.003906 768.15625 L 1060.582031 768.15625 L 1060.582031 777.796875 Z M 1060.582031 733.167969 L 1060.582031 741.539062 L 1033.003906 741.539062 L 1033.003906 733.167969 Z M 1033.003906 756.074219 L 1060.582031 756.074219 L 1060.582031 765.710938 L 1033.003906 765.710938 Z M 1060.582031 753.625 L 1033.003906 753.625 L 1033.003906 743.988281 L 1060.582031 743.988281 Z M 990.496094 796.007812 L 990.496094 785.609375 L 1018.078125 785.609375 L 1018.078125 796.007812 Z M 1018.078125 749.949219 L 1018.078125 757.46875 L 990.496094 757.46875 L 990.496094 749.949219 Z M 990.496094 772.765625 L 1018.078125 772.765625 L 1018.078125 783.164062 L 990.496094 783.164062 Z M 1018.078125 770.3125 L 990.496094 770.3125 L 990.496094 759.914062 L 1018.078125 759.914062 Z M 932.941406 729.117188 C 932.269531 729.117188 931.722656 729.664062 931.722656 730.339844 L 931.722656 802.261719 L 907.511719 802.261719 L 907.511719 723.917969 L 941.839844 723.917969 L 941.839844 745.808594 L 934.164062 745.808594 L 934.164062 730.339844 C 934.164062 729.664062 933.617188 729.117188 932.941406 729.117188 Z M 889.761719 749.863281 L 889.761719 740.691406 L 905.070312 740.691406 L 905.070312 749.863281 Z M 839.746094 737.167969 L 830.136719 731.957031 L 830.136719 719.050781 L 866.277344 700.6875 L 866.277344 717.417969 L 845.234375 717.417969 C 844.5625 717.417969 844.015625 717.960938 844.015625 718.636719 C 844.015625 719.3125 844.5625 719.859375 845.234375 719.859375 L 866.277344 719.859375 L 866.277344 731.609375 L 845.234375 731.609375 C 844.5625 731.609375 844.015625 732.15625 844.015625 732.835938 C 844.015625 733.511719 844.5625 734.058594 845.234375 734.058594 L 866.277344 734.058594 L 866.277344 745.808594 L 845.234375 745.808594 C 844.5625 745.808594 844.015625 746.355469 844.015625 747.035156 C 844.015625 747.707031 844.5625 748.257812 845.234375 748.257812 L 866.277344 748.257812 L 866.277344 760.003906 L 845.234375 760.003906 C 844.5625 760.003906 844.015625 760.550781 844.015625 761.230469 C 844.015625 761.90625 844.5625 762.453125 845.234375 762.453125 L 866.277344 762.453125 L 866.277344 774.203125 L 845.234375 774.203125 C 844.5625 774.203125 844.015625 774.75 844.015625 775.429688 C 844.015625 776.105469 844.5625 776.652344 845.234375 776.652344 L 866.277344 776.652344 L 866.277344 788.398438 L 845.234375 788.398438 C 844.5625 788.398438 844.015625 788.949219 844.015625 789.621094 C 844.015625 790.300781 844.5625 790.851562 845.234375 790.851562 L 866.277344 790.851562 L 866.277344 802.261719 L 840.386719 802.261719 L 840.386719 738.242188 C 840.386719 737.792969 840.140625 737.378906 839.746094 737.167969 Z M 722.445312 732.285156 C 721.773438 732.285156 721.226562 732.832031 721.226562 733.511719 L 721.226562 799.894531 L 707.816406 799.894531 L 707.816406 756.160156 C 707.816406 755.484375 707.269531 754.9375 706.589844 754.9375 L 700.054688 754.9375 L 700.054688 705.664062 L 736.066406 705.664062 L 736.066406 732.285156 Z M 913.421875 715.339844 L 934.753906 715.339844 L 934.753906 721.300781 L 913.421875 721.300781 Z M 1436.664062 807.667969 L 1425.738281 807.667969 L 1425.738281 727.933594 C 1425.738281 727.257812 1425.191406 726.710938 1424.519531 726.710938 L 1368.355469 726.710938 C 1367.679688 726.710938 1367.132812 727.257812 1367.132812 727.933594 L 1367.132812 750.289062 L 1333.949219 750.289062 C 1333.269531 750.289062 1332.722656 750.832031 1332.722656 751.511719 L 1332.722656 796.683594 L 1319.480469 796.683594 L 1319.480469 742.382812 C 1319.480469 741.707031 1318.933594 741.160156 1318.261719 741.160156 L 1314.042969 741.160156 L 1314.042969 712.214844 C 1314.042969 711.539062 1313.496094 710.988281 1312.820312 710.988281 L 1309.613281 710.988281 L 1309.613281 696.621094 C 1309.613281 695.945312 1309.070312 695.394531 1308.390625 695.394531 L 1300.757812 695.394531 L 1300.757812 684.707031 C 1300.757812 684.03125 1300.210938 683.484375 1299.539062 683.484375 C 1298.859375 683.484375 1298.3125 684.03125 1298.3125 684.707031 L 1298.3125 695.394531 L 1290.679688 695.394531 C 1290.007812 695.394531 1289.460938 695.945312 1289.460938 696.621094 L 1289.460938 710.988281 L 1286.253906 710.988281 C 1285.582031 710.988281 1285.035156 711.539062 1285.035156 712.214844 L 1285.035156 741.160156 L 1280.5625 741.160156 C 1279.886719 741.160156 1279.339844 741.707031 1279.339844 742.382812 L 1279.339844 801.496094 L 1268.625 801.496094 L 1268.625 751 C 1268.625 750.328125 1268.078125 749.777344 1267.40625 749.777344 L 1252.816406 749.777344 L 1252.816406 728.4375 C 1252.816406 727.761719 1252.269531 727.214844 1251.59375 727.214844 C 1250.921875 727.214844 1250.375 727.761719 1250.375 728.4375 L 1250.375 749.777344 L 1236.292969 749.777344 C 1235.617188 749.777344 1235.070312 750.328125 1235.070312 751 L 1235.070312 801.496094 L 1224.609375 801.496094 L 1224.609375 731.484375 C 1224.609375 730.808594 1224.0625 730.261719 1223.382812 730.261719 L 1207.65625 730.261719 L 1207.65625 712.46875 C 1207.65625 711.789062 1207.109375 711.242188 1206.433594 711.242188 C 1205.761719 711.242188 1205.214844 711.789062 1205.214844 712.46875 L 1205.214844 730.261719 L 1189.222656 730.261719 C 1188.542969 730.261719 1187.996094 730.808594 1187.996094 731.484375 L 1187.996094 797.1875 L 1165.65625 797.1875 L 1165.65625 728.015625 C 1165.65625 727.59375 1165.4375 727.203125 1165.078125 726.976562 L 1129.757812 704.964844 C 1129.378906 704.730469 1128.90625 704.71875 1128.519531 704.933594 C 1128.132812 705.148438 1127.886719 705.558594 1127.886719 706 L 1127.886719 747.980469 L 1115.34375 741.222656 C 1114.964844 741.015625 1114.503906 741.027344 1114.136719 741.25 C 1113.765625 741.46875 1113.542969 741.867188 1113.542969 742.296875 L 1113.542969 771.523438 C 1113.542969 771.527344 1113.542969 771.53125 1113.542969 771.535156 L 1113.542969 807.667969 L 1101.691406 807.667969 L 1094.140625 737.226562 C 1099.242188 734.460938 1102.492188 729.0625 1102.492188 723.199219 C 1102.492188 714.832031 1096.011719 707.949219 1087.820312 707.328125 L 1087.820312 691.679688 C 1087.820312 691.003906 1087.273438 690.453125 1086.597656 690.453125 C 1085.921875 690.453125 1085.375 691.003906 1085.375 691.679688 L 1085.375 707.328125 C 1077.179688 707.949219 1070.703125 714.832031 1070.703125 723.199219 C 1070.703125 729.332031 1074.257812 734.957031 1079.773438 737.589844 L 1074.5 807.667969 L 1063.027344 807.667969 L 1063.027344 731.945312 C 1063.027344 731.273438 1062.480469 730.722656 1061.800781 730.722656 L 1048.011719 730.722656 L 1048.011719 715.046875 C 1048.011719 714.371094 1047.464844 713.824219 1046.792969 713.824219 C 1046.117188 713.824219 1045.570312 714.371094 1045.570312 715.046875 L 1045.570312 730.722656 L 1031.78125 730.722656 C 1031.105469 730.722656 1030.558594 731.273438 1030.558594 731.945312 L 1030.558594 799.554688 L 1020.519531 799.554688 L 1020.519531 748.71875 C 1020.519531 748.046875 1019.972656 747.496094 1019.296875 747.496094 L 1005.511719 747.496094 L 1005.511719 732.835938 C 1005.511719 732.15625 1004.964844 731.609375 1004.285156 731.609375 C 1003.613281 731.609375 1003.066406 732.15625 1003.066406 732.835938 L 1003.066406 747.496094 L 989.277344 747.496094 C 988.605469 747.496094 988.058594 748.046875 988.058594 748.71875 L 988.058594 802.261719 L 973.632812 802.261719 L 973.632812 747.035156 C 973.632812 746.355469 973.085938 745.808594 972.410156 745.808594 L 944.285156 745.808594 L 944.285156 722.695312 C 944.285156 722.015625 943.738281 721.46875 943.0625 721.46875 L 937.199219 721.46875 L 937.199219 714.117188 C 937.199219 713.4375 936.652344 712.890625 935.980469 712.890625 L 925.308594 712.890625 L 925.308594 697.253906 C 925.308594 696.582031 924.761719 696.03125 924.085938 696.03125 C 923.414062 696.03125 922.867188 696.582031 922.867188 697.253906 L 922.867188 712.890625 L 912.195312 712.890625 C 911.523438 712.890625 910.976562 713.4375 910.976562 714.117188 L 910.976562 721.46875 L 906.292969 721.46875 C 905.617188 721.46875 905.070312 722.015625 905.070312 722.695312 L 905.070312 738.242188 L 898.640625 738.242188 L 898.640625 728.4375 C 898.640625 727.761719 898.09375 727.214844 897.414062 727.214844 C 896.742188 727.214844 896.195312 727.761719 896.195312 728.4375 L 896.195312 738.242188 L 888.542969 738.242188 C 887.863281 738.242188 887.316406 738.792969 887.316406 739.46875 L 887.316406 749.863281 L 884.027344 749.863281 C 883.355469 749.863281 882.808594 750.410156 882.808594 751.089844 L 882.808594 802.261719 L 868.722656 802.261719 L 868.722656 698.695312 C 868.722656 698.265625 868.503906 697.875 868.140625 697.648438 C 867.777344 697.429688 867.324219 697.40625 866.945312 697.601562 L 828.363281 717.210938 C 827.953125 717.417969 827.695312 717.835938 827.695312 718.296875 L 827.695312 730.628906 L 811.074219 721.617188 C 810.691406 721.410156 810.230469 721.421875 809.867188 721.640625 C 809.496094 721.863281 809.269531 722.265625 809.269531 722.695312 L 809.269531 802.933594 L 798.21875 802.933594 L 798.21875 747.035156 C 798.21875 746.59375 797.984375 746.191406 797.605469 745.972656 C 797.226562 745.75 796.761719 745.753906 796.382812 745.976562 L 769.730469 761.523438 C 769.359375 761.742188 769.125 762.144531 769.125 762.582031 L 769.125 802.933594 L 758.753906 802.933594 L 758.753906 733.511719 C 758.753906 732.832031 758.207031 732.285156 757.527344 732.285156 L 738.511719 732.285156 L 738.511719 704.441406 C 738.511719 703.761719 737.964844 703.21875 737.285156 703.21875 L 698.835938 703.21875 C 698.15625 703.21875 697.609375 703.761719 697.609375 704.441406 L 697.609375 754.9375 L 677.242188 754.9375 C 676.570312 754.9375 676.023438 755.484375 676.023438 756.160156 L 676.023438 807.667969 L 670.707031 807.667969 L 670.707031 777.453125 C 670.707031 777.082031 670.535156 776.730469 670.246094 776.496094 L 653.71875 763.316406 C 653.277344 762.964844 652.660156 762.960938 652.210938 763.296875 L 635.011719 776.484375 C 634.707031 776.714844 634.527344 777.074219 634.527344 777.453125 L 634.527344 807.667969 L 619.898438 807.667969 C 619.222656 807.667969 618.675781 808.214844 618.675781 808.894531 C 618.675781 809.566406 619.222656 810.117188 619.898438 810.117188 L 635.753906 810.117188 C 636.425781 810.117188 636.972656 809.566406 636.972656 808.894531 L 636.972656 778.058594 L 652.941406 765.824219 L 668.265625 778.042969 L 668.265625 808.894531 C 668.265625 809.566406 668.8125 810.117188 669.484375 810.117188 L 677.242188 810.117188 C 677.917969 810.117188 678.464844 809.566406 678.464844 808.894531 L 678.464844 757.386719 L 705.371094 757.386719 L 705.371094 801.117188 C 705.371094 801.792969 705.917969 802.339844 706.589844 802.339844 L 722.445312 802.339844 C 723.125 802.339844 723.671875 801.792969 723.671875 801.117188 L 723.671875 788.820312 L 740.492188 788.820312 C 741.167969 788.820312 741.714844 788.273438 741.714844 787.597656 C 741.714844 786.917969 741.167969 786.371094 740.492188 786.371094 L 723.671875 786.371094 L 723.671875 775.296875 L 740.492188 775.296875 C 741.167969 775.296875 741.714844 774.75 741.714844 774.074219 C 741.714844 773.398438 741.167969 772.847656 740.492188 772.847656 L 723.671875 772.847656 L 723.671875 761.773438 L 740.492188 761.773438 C 741.167969 761.773438 741.714844 761.230469 741.714844 760.550781 C 741.714844 759.878906 741.167969 759.328125 740.492188 759.328125 L 723.671875 759.328125 L 723.671875 748.257812 L 740.492188 748.257812 C 741.167969 748.257812 741.714844 747.707031 741.714844 747.035156 C 741.714844 746.355469 741.167969 745.808594 740.492188 745.808594 L 723.671875 745.808594 L 723.671875 734.734375 L 756.308594 734.734375 L 756.308594 804.164062 C 756.308594 804.835938 756.855469 805.386719 757.527344 805.386719 L 770.347656 805.386719 C 771.023438 805.386719 771.570312 804.835938 771.570312 804.164062 L 771.570312 763.289062 L 795.773438 749.160156 L 795.773438 764.566406 L 781.480469 764.566406 C 780.804688 764.566406 780.257812 765.121094 780.257812 765.792969 C 780.257812 766.46875 780.804688 767.015625 781.480469 767.015625 L 795.773438 767.015625 L 795.773438 774.371094 L 781.480469 774.371094 C 780.804688 774.371094 780.257812 774.917969 780.257812 775.59375 C 780.257812 776.273438 780.804688 776.820312 781.480469 776.820312 L 795.773438 776.820312 L 795.773438 784.175781 L 781.480469 784.175781 C 780.804688 784.175781 780.257812 784.722656 780.257812 785.398438 C 780.257812 786.078125 780.804688 786.625 781.480469 786.625 L 795.773438 786.625 L 795.773438 793.980469 L 781.480469 793.980469 C 780.804688 793.980469 780.257812 794.527344 780.257812 795.203125 C 780.257812 795.875 780.804688 796.425781 781.480469 796.425781 L 795.773438 796.425781 L 795.773438 804.164062 C 795.773438 804.835938 796.320312 805.386719 797 805.386719 L 810.488281 805.386719 C 811.167969 805.386719 811.714844 804.835938 811.714844 804.164062 L 811.714844 793.382812 L 827.527344 793.382812 C 828.199219 793.382812 828.746094 792.835938 828.746094 792.160156 C 828.746094 791.480469 828.199219 790.933594 827.527344 790.933594 L 811.714844 790.933594 L 811.714844 776.820312 L 827.527344 776.820312 C 828.199219 776.820312 828.746094 776.273438 828.746094 775.59375 C 828.746094 774.917969 828.199219 774.371094 827.527344 774.371094 L 811.714844 774.371094 L 811.714844 760.257812 L 827.527344 760.257812 C 828.199219 760.257812 828.746094 759.710938 828.746094 759.035156 C 828.746094 758.355469 828.199219 757.808594 827.527344 757.808594 L 811.714844 757.808594 L 811.714844 743.695312 L 827.527344 743.695312 C 828.199219 743.695312 828.746094 743.144531 828.746094 742.46875 C 828.746094 741.792969 828.199219 741.246094 827.527344 741.246094 L 811.714844 741.246094 L 811.714844 724.746094 L 837.941406 738.972656 L 837.941406 803.484375 C 837.941406 804.164062 838.488281 804.710938 839.160156 804.710938 L 884.027344 804.710938 C 884.707031 804.710938 885.253906 804.164062 885.253906 803.484375 L 885.253906 752.3125 L 905.070312 752.3125 L 905.070312 803.484375 C 905.070312 804.164062 905.617188 804.710938 906.292969 804.710938 L 932.941406 804.710938 C 933.617188 804.710938 934.164062 804.164062 934.164062 803.484375 L 934.164062 748.257812 L 971.1875 748.257812 L 971.1875 803.484375 C 971.1875 804.164062 971.734375 804.710938 972.410156 804.710938 L 989.277344 804.710938 C 989.949219 804.710938 990.496094 804.164062 990.496094 803.484375 L 990.496094 798.457031 L 1018.078125 798.457031 L 1018.078125 800.78125 C 1018.078125 801.453125 1018.625 802.003906 1019.296875 802.003906 L 1031.78125 802.003906 C 1032.453125 802.003906 1033.003906 801.453125 1033.003906 800.78125 L 1033.003906 780.238281 L 1060.582031 780.238281 L 1060.582031 808.894531 C 1060.582031 809.566406 1061.128906 810.117188 1061.800781 810.117188 L 1075.632812 810.117188 C 1076.273438 810.117188 1076.800781 809.625 1076.851562 808.980469 L 1082.25 737.277344 C 1082.289062 736.765625 1082.003906 736.308594 1081.574219 736.09375 C 1081.460938 735.816406 1081.25 735.582031 1080.957031 735.445312 C 1076.582031 733.417969 1073.636719 729.179688 1073.203125 724.421875 L 1099.992188 724.421875 C 1099.558594 729.179688 1096.605469 733.417969 1092.230469 735.445312 C 1091.621094 735.730469 1091.351562 736.457031 1091.632812 737.070312 C 1091.648438 737.09375 1091.660156 737.113281 1091.671875 737.136719 L 1099.378906 809.023438 C 1099.449219 809.648438 1099.972656 810.117188 1100.59375 810.117188 L 1114.761719 810.117188 C 1115.441406 810.117188 1115.984375 809.566406 1115.984375 808.894531 L 1115.984375 773.402344 L 1126.527344 777.972656 L 1126.527344 808.894531 C 1126.527344 809.566406 1127.074219 810.117188 1127.753906 810.117188 C 1128.425781 810.117188 1128.972656 809.566406 1128.972656 808.894531 L 1128.972656 777.171875 C 1128.972656 776.679688 1128.683594 776.238281 1128.234375 776.046875 L 1115.984375 770.734375 L 1115.984375 759.375 L 1136.394531 769.023438 L 1136.394531 809.0625 C 1136.394531 809.738281 1136.941406 810.285156 1137.617188 810.285156 C 1138.292969 810.285156 1138.839844 809.738281 1138.839844 809.0625 L 1138.839844 768.242188 C 1138.839844 767.769531 1138.566406 767.339844 1138.140625 767.136719 L 1115.984375 756.667969 L 1115.984375 744.351562 L 1144.914062 759.933594 L 1144.914062 808.894531 C 1144.914062 809.566406 1145.460938 810.117188 1146.136719 810.117188 C 1146.8125 810.117188 1147.359375 809.566406 1147.359375 808.894531 L 1147.359375 759.199219 C 1147.359375 758.75 1147.109375 758.335938 1146.710938 758.121094 L 1144.660156 757.015625 L 1144.660156 746.355469 C 1144.660156 745.914062 1144.421875 745.503906 1144.035156 745.285156 L 1130.332031 737.609375 L 1130.332031 725.476562 L 1152.082031 737.898438 L 1152.082031 797.230469 C 1152.082031 797.902344 1152.628906 798.457031 1153.304688 798.457031 C 1153.976562 798.457031 1154.523438 797.902344 1154.523438 797.230469 L 1154.523438 737.1875 C 1154.523438 736.746094 1154.289062 736.339844 1153.90625 736.125 L 1130.332031 722.65625 L 1130.332031 708.207031 L 1163.214844 728.695312 L 1163.214844 798.414062 C 1163.214844 799.089844 1163.761719 799.636719 1164.4375 799.636719 L 1189.222656 799.636719 C 1189.894531 799.636719 1190.441406 799.089844 1190.441406 798.414062 L 1190.441406 732.707031 L 1222.164062 732.707031 L 1222.164062 802.722656 C 1222.164062 803.398438 1222.710938 803.945312 1223.382812 803.945312 L 1236.292969 803.945312 C 1236.96875 803.945312 1237.515625 803.398438 1237.515625 802.722656 L 1237.515625 752.230469 L 1266.1875 752.230469 L 1266.1875 802.722656 C 1266.1875 803.398438 1266.734375 803.945312 1267.40625 803.945312 L 1280.5625 803.945312 C 1281.238281 803.945312 1281.785156 803.398438 1281.785156 802.722656 L 1281.785156 743.609375 L 1317.039062 743.609375 L 1317.039062 797.902344 C 1317.039062 798.582031 1317.585938 799.132812 1318.261719 799.132812 L 1333.949219 799.132812 C 1334.621094 799.132812 1335.167969 798.582031 1335.167969 797.902344 L 1335.167969 752.734375 L 1398.757812 752.734375 L 1398.757812 808.894531 C 1398.757812 809.566406 1399.304688 810.117188 1399.980469 810.117188 L 1436.664062 810.117188 C 1437.335938 810.117188 1437.882812 809.566406 1437.882812 808.894531 C 1437.882812 808.214844 1437.335938 807.667969 1436.664062 807.667969 " fill-opacity="1" fill-rule="nonzero"/></g><path fill="#122d42" d="M 661.386719 779.445312 L 643.171875 779.445312 C 642.5 779.445312 641.953125 779.992188 641.953125 780.667969 C 641.953125 781.339844 642.5 781.890625 643.171875 781.890625 L 661.386719 781.890625 C 662.066406 781.890625 662.613281 781.339844 662.613281 780.667969 C 662.613281 779.992188 662.066406 779.445312 661.386719 779.445312 " fill-opacity="1" fill-rule="nonzero"/><path fill="#122d42" d="M 661.386719 789.753906 L 643.171875 789.753906 C 642.5 789.753906 641.953125 790.300781 641.953125 790.976562 C 641.953125 791.65625 642.5 792.199219 643.171875 792.199219 L 661.386719 792.199219 C 662.066406 792.199219 662.613281 791.65625 662.613281 790.976562 C 662.613281 790.300781 662.066406 789.753906 661.386719 789.753906 " fill-opacity="1" fill-rule="nonzero"/><path fill="#122d42" d="M 661.386719 800.0625 L 643.171875 800.0625 C 642.5 800.0625 641.953125 800.613281 641.953125 801.285156 C 641.953125 801.964844 642.5 802.511719 643.171875 802.511719 L 661.386719 802.511719 C 662.066406 802.511719 662.613281 801.964844 662.613281 801.285156 C 662.613281 800.613281 662.066406 800.0625 661.386719 800.0625 " fill-opacity="1" fill-rule="nonzero"/><path fill="#122d42" d="M 687.53125 762.960938 C 686.859375 762.960938 686.3125 763.507812 686.3125 764.1875 L 686.3125 769.933594 C 686.3125 770.609375 686.859375 771.15625 687.53125 771.15625 C 688.210938 771.15625 688.753906 770.609375 688.753906 769.933594 L 688.753906 764.1875 C 688.753906 763.507812 688.210938 762.960938 687.53125 762.960938 " fill-opacity="1" fill-rule="nonzero"/><path fill="#122d42" d="M 697.484375 762.960938 C 696.8125 762.960938 696.265625 763.507812 696.265625 764.1875 L 696.265625 769.933594 C 696.265625 770.609375 696.8125 771.15625 697.484375 771.15625 C 698.160156 771.15625 698.703125 770.609375 698.703125 769.933594 L 698.703125 764.1875 C 698.703125 763.507812 698.160156 762.960938 697.484375 762.960938 " fill-opacity="1" fill-rule="nonzero"/><path fill="#122d42" d="M 687.53125 775.554688 C 686.859375 775.554688 686.3125 776.105469 686.3125 776.777344 L 686.3125 782.527344 C 686.3125 783.199219 686.859375 783.75 687.53125 783.75 C 688.210938 783.75 688.753906 783.199219 688.753906 782.527344 L 688.753906 776.777344 C 688.753906 776.105469 688.210938 775.554688 687.53125 775.554688 " fill-opacity="1" fill-rule="nonzero"/><path fill="#122d42" d="M 697.484375 775.554688 C 696.8125 775.554688 696.265625 776.105469 696.265625 776.777344 L 696.265625 782.527344 C 696.265625 783.199219 696.8125 783.75 697.484375 783.75 C 698.160156 783.75 698.703125 783.199219 698.703125 782.527344 L 698.703125 776.777344 C 698.703125 776.105469 698.160156 775.554688 697.484375 775.554688 " fill-opacity="1" fill-rule="nonzero"/><path fill="#122d42" d="M 687.53125 788.148438 C 686.859375 788.148438 686.3125 788.695312 686.3125 789.371094 L 686.3125 795.117188 C 686.3125 795.792969 686.859375 796.339844 687.53125 796.339844 C 688.210938 796.339844 688.753906 795.792969 688.753906 795.117188 L 688.753906 789.371094 C 688.753906 788.695312 688.210938 788.148438 687.53125 788.148438 " fill-opacity="1" fill-rule="nonzero"/><path fill="#122d42" d="M 697.484375 788.148438 C 696.8125 788.148438 696.265625 788.695312 696.265625 789.371094 L 696.265625 795.117188 C 696.265625 795.792969 696.8125 796.339844 697.484375 796.339844 C 698.160156 796.339844 698.703125 795.792969 698.703125 795.117188 L 698.703125 789.371094 C 698.703125 788.695312 698.160156 788.148438 697.484375 788.148438 " fill-opacity="1" fill-rule="nonzero"/><path fill="#122d42" d="M 710.554688 712.890625 C 709.878906 712.890625 709.332031 713.4375 709.332031 714.117188 L 709.332031 720.710938 C 709.332031 721.382812 709.878906 721.929688 710.554688 721.929688 C 711.230469 721.929688 711.777344 721.382812 711.777344 720.710938 L 711.777344 714.117188 C 711.777344 713.4375 711.230469 712.890625 710.554688 712.890625 " fill-opacity="1" fill-rule="nonzero"/><path fill="#122d42" d="M 724.847656 712.890625 C 724.175781 712.890625 723.628906 713.4375 723.628906 714.117188 L 723.628906 720.710938 C 723.628906 721.382812 724.175781 721.929688 724.847656 721.929688 C 725.527344 721.929688 726.074219 721.382812 726.074219 720.710938 L 726.074219 714.117188 C 726.074219 713.4375 725.527344 712.890625 724.847656 712.890625 " fill-opacity="1" fill-rule="nonzero"/><path fill="#122d42" d="M 710.554688 729.117188 C 709.878906 729.117188 709.332031 729.664062 709.332031 730.339844 L 709.332031 736.933594 C 709.332031 737.609375 709.878906 738.15625 710.554688 738.15625 C 711.230469 738.15625 711.777344 737.609375 711.777344 736.933594 L 711.777344 730.339844 C 711.777344 729.664062 711.230469 729.117188 710.554688 729.117188 " fill-opacity="1" fill-rule="nonzero"/><path fill="#122d42" d="M 710.554688 745.34375 C 709.878906 745.34375 709.332031 745.890625 709.332031 746.566406 L 709.332031 753.15625 C 709.332031 753.835938 709.878906 754.382812 710.554688 754.382812 C 711.230469 754.382812 711.777344 753.835938 711.777344 753.15625 L 711.777344 746.566406 C 711.777344 745.890625 711.230469 745.34375 710.554688 745.34375 " fill-opacity="1" fill-rule="nonzero"/><path fill="#122d42" d="M 892.96875 757.257812 C 892.292969 757.257812 891.746094 757.808594 891.746094 758.480469 L 891.746094 793.171875 C 891.746094 793.847656 892.292969 794.394531 892.96875 794.394531 C 893.644531 794.394531 894.191406 793.847656 894.191406 793.171875 L 894.191406 758.480469 C 894.191406 757.808594 893.644531 757.257812 892.96875 757.257812 " fill-opacity="1" fill-rule="nonzero"/><path fill="#122d42" d="M 917.003906 729.117188 C 916.328125 729.117188 915.78125 729.664062 915.78125 730.339844 L 915.78125 787.597656 C 915.78125 788.273438 916.328125 788.820312 917.003906 788.820312 C 917.679688 788.820312 918.226562 788.273438 918.226562 787.597656 L 918.226562 730.339844 C 918.226562 729.664062 917.679688 729.117188 917.003906 729.117188 " fill-opacity="1" fill-rule="nonzero"/><path fill="#122d42" d="M 942.050781 754.9375 C 941.375 754.9375 940.832031 755.484375 940.832031 756.160156 L 940.832031 761.230469 C 940.832031 761.90625 941.375 762.453125 942.050781 762.453125 C 942.722656 762.453125 943.269531 761.90625 943.269531 761.230469 L 943.269531 756.160156 C 943.269531 755.484375 942.722656 754.9375 942.050781 754.9375 " fill-opacity="1" fill-rule="nonzero"/><path fill="#122d42" d="M 949.132812 754.9375 C 948.460938 754.9375 947.914062 755.484375 947.914062 756.160156 L 947.914062 761.230469 C 947.914062 761.90625 948.460938 762.453125 949.132812 762.453125 C 949.8125 762.453125 950.359375 761.90625 950.359375 761.230469 L 950.359375 756.160156 C 950.359375 755.484375 949.8125 754.9375 949.132812 754.9375 " fill-opacity="1" fill-rule="nonzero"/><path fill="#122d42" d="M 956.21875 754.9375 C 955.542969 754.9375 954.996094 755.484375 954.996094 756.160156 L 954.996094 761.230469 C 954.996094 761.90625 955.542969 762.453125 956.21875 762.453125 C 956.894531 762.453125 957.441406 761.90625 957.441406 761.230469 L 957.441406 756.160156 C 957.441406 755.484375 956.894531 754.9375 956.21875 754.9375 " fill-opacity="1" fill-rule="nonzero"/><path fill="#122d42" d="M 963.300781 754.9375 C 962.628906 754.9375 962.082031 755.484375 962.082031 756.160156 L 962.082031 761.230469 C 962.082031 761.90625 962.628906 762.453125 963.300781 762.453125 C 963.980469 762.453125 964.527344 761.90625 964.527344 761.230469 L 964.527344 756.160156 C 964.527344 755.484375 963.980469 754.9375 963.300781 754.9375 " fill-opacity="1" fill-rule="nonzero"/><path fill="#122d42" d="M 942.050781 770.3125 C 941.375 770.3125 940.832031 770.863281 940.832031 771.542969 L 940.832031 776.609375 C 940.832031 777.285156 941.375 777.832031 942.050781 777.832031 C 942.722656 777.832031 943.269531 777.285156 943.269531 776.609375 L 943.269531 771.542969 C 943.269531 770.863281 942.722656 770.3125 942.050781 770.3125 " fill-opacity="1" fill-rule="nonzero"/><path fill="#122d42" d="M 949.132812 770.3125 C 948.460938 770.3125 947.914062 770.863281 947.914062 771.542969 L 947.914062 776.609375 C 947.914062 777.285156 948.460938 777.832031 949.132812 777.832031 C 949.8125 777.832031 950.359375 777.285156 950.359375 776.609375 L 950.359375 771.542969 C 950.359375 770.863281 949.8125 770.3125 949.132812 770.3125 " fill-opacity="1" fill-rule="nonzero"/><path fill="#122d42" d="M 956.21875 770.3125 C 955.542969 770.3125 954.996094 770.863281 954.996094 771.542969 L 954.996094 776.609375 C 954.996094 777.285156 955.542969 777.832031 956.21875 777.832031 C 956.894531 777.832031 957.441406 777.285156 957.441406 776.609375 L 957.441406 771.542969 C 957.441406 770.863281 956.894531 770.3125 956.21875 770.3125 " fill-opacity="1" fill-rule="nonzero"/><path fill="#122d42" d="M 963.300781 770.3125 C 962.628906 770.3125 962.082031 770.863281 962.082031 771.542969 L 962.082031 776.609375 C 962.082031 777.285156 962.628906 777.832031 963.300781 777.832031 C 963.980469 777.832031 964.527344 777.285156 964.527344 776.609375 L 964.527344 771.542969 C 964.527344 770.863281 963.980469 770.3125 963.300781 770.3125 " fill-opacity="1" fill-rule="nonzero"/><path fill="#122d42" d="M 942.050781 785.699219 C 941.375 785.699219 940.832031 786.246094 940.832031 786.917969 L 940.832031 791.988281 C 940.832031 792.667969 941.375 793.214844 942.050781 793.214844 C 942.722656 793.214844 943.269531 792.667969 943.269531 791.988281 L 943.269531 786.917969 C 943.269531 786.246094 942.722656 785.699219 942.050781 785.699219 " fill-opacity="1" fill-rule="nonzero"/><path fill="#122d42" d="M 949.132812 785.699219 C 948.460938 785.699219 947.914062 786.246094 947.914062 786.917969 L 947.914062 791.988281 C 947.914062 792.667969 948.460938 793.214844 949.132812 793.214844 C 949.8125 793.214844 950.359375 792.667969 950.359375 791.988281 L 950.359375 786.917969 C 950.359375 786.246094 949.8125 785.699219 949.132812 785.699219 " fill-opacity="1" fill-rule="nonzero"/><path fill="#122d42" d="M 956.21875 785.699219 C 955.542969 785.699219 954.996094 786.246094 954.996094 786.917969 L 954.996094 791.988281 C 954.996094 792.667969 955.542969 793.214844 956.21875 793.214844 C 956.894531 793.214844 957.441406 792.667969 957.441406 791.988281 L 957.441406 786.917969 C 957.441406 786.246094 956.894531 785.699219 956.21875 785.699219 " fill-opacity="1" fill-rule="nonzero"/><path fill="#122d42" d="M 963.300781 785.699219 C 962.628906 785.699219 962.082031 786.246094 962.082031 786.917969 L 962.082031 791.988281 C 962.082031 792.667969 962.628906 793.214844 963.300781 793.214844 C 963.980469 793.214844 964.527344 792.667969 964.527344 791.988281 L 964.527344 786.917969 C 964.527344 786.246094 963.980469 785.699219 963.300781 785.699219 " fill-opacity="1" fill-rule="nonzero"/><path fill="#122d42" d="M 1214.152344 741.285156 L 1198.71875 741.285156 C 1198.042969 741.285156 1197.496094 741.835938 1197.496094 742.507812 C 1197.496094 743.1875 1198.042969 743.738281 1198.71875 743.738281 L 1214.152344 743.738281 C 1214.824219 743.738281 1215.371094 743.1875 1215.371094 742.507812 C 1215.371094 741.835938 1214.824219 741.285156 1214.152344 741.285156 " fill-opacity="1" fill-rule="nonzero"/><path fill="#122d42" d="M 1214.152344 750.796875 L 1198.71875 750.796875 C 1198.042969 750.796875 1197.496094 751.34375 1197.496094 752.019531 C 1197.496094 752.691406 1198.042969 753.242188 1198.71875 753.242188 L 1214.152344 753.242188 C 1214.824219 753.242188 1215.371094 752.691406 1215.371094 752.019531 C 1215.371094 751.34375 1214.824219 750.796875 1214.152344 750.796875 " fill-opacity="1" fill-rule="nonzero"/><path fill="#122d42" d="M 1214.152344 760.300781 L 1198.71875 760.300781 C 1198.042969 760.300781 1197.496094 760.847656 1197.496094 761.527344 C 1197.496094 762.203125 1198.042969 762.75 1198.71875 762.75 L 1214.152344 762.75 C 1214.824219 762.75 1215.371094 762.203125 1215.371094 761.527344 C 1215.371094 760.847656 1214.824219 760.300781 1214.152344 760.300781 " fill-opacity="1" fill-rule="nonzero"/><path fill="#122d42" d="M 1214.152344 769.808594 L 1198.71875 769.808594 C 1198.042969 769.808594 1197.496094 770.355469 1197.496094 771.03125 C 1197.496094 771.710938 1198.042969 772.253906 1198.71875 772.253906 L 1214.152344 772.253906 C 1214.824219 772.253906 1215.371094 771.710938 1215.371094 771.03125 C 1215.371094 770.355469 1214.824219 769.808594 1214.152344 769.808594 " fill-opacity="1" fill-rule="nonzero"/><path fill="#122d42" d="M 1214.152344 779.316406 L 1198.71875 779.316406 C 1198.042969 779.316406 1197.496094 779.867188 1197.496094 780.539062 C 1197.496094 781.214844 1198.042969 781.761719 1198.71875 781.761719 L 1214.152344 781.761719 C 1214.824219 781.761719 1215.371094 781.214844 1215.371094 780.539062 C 1215.371094 779.867188 1214.824219 779.316406 1214.152344 779.316406 " fill-opacity="1" fill-rule="nonzero"/><path fill="#122d42" d="M 1214.152344 788.820312 L 1198.71875 788.820312 C 1198.042969 788.820312 1197.496094 789.371094 1197.496094 790.050781 C 1197.496094 790.722656 1198.042969 791.269531 1198.71875 791.269531 L 1214.152344 791.269531 C 1214.824219 791.269531 1215.371094 790.722656 1215.371094 790.050781 C 1215.371094 789.371094 1214.824219 788.820312 1214.152344 788.820312 " fill-opacity="1" fill-rule="nonzero"/><path fill="#122d42" d="M 1257.328125 802.007812 L 1245.859375 802.007812 L 1245.859375 764.398438 L 1257.328125 764.398438 Z M 1258.554688 761.949219 L 1244.636719 761.949219 C 1243.960938 761.949219 1243.417969 762.496094 1243.417969 763.175781 L 1243.417969 803.230469 C 1243.417969 803.910156 1243.960938 804.453125 1244.636719 804.453125 L 1258.554688 804.453125 C 1259.226562 804.453125 1259.773438 803.910156 1259.773438 803.230469 L 1259.773438 763.175781 C 1259.773438 762.496094 1259.226562 761.949219 1258.554688 761.949219 " fill-opacity="1" fill-rule="nonzero"/><path fill="#122d42" d="M 1307.171875 802.007812 L 1291.90625 802.007812 L 1291.90625 757.386719 L 1307.171875 757.386719 Z M 1308.390625 754.9375 L 1290.679688 754.9375 C 1290.007812 754.9375 1289.460938 755.484375 1289.460938 756.160156 L 1289.460938 803.230469 C 1289.460938 803.910156 1290.007812 804.453125 1290.679688 804.453125 L 1308.390625 804.453125 C 1309.070312 804.453125 1309.613281 803.910156 1309.613281 803.230469 L 1309.613281 756.160156 C 1309.613281 755.484375 1309.070312 754.9375 1308.390625 754.9375 " fill-opacity="1" fill-rule="nonzero"/><path fill="#122d42" d="M 1347.605469 761.949219 L 1340.777344 761.949219 C 1340.097656 761.949219 1339.558594 762.496094 1339.558594 763.175781 C 1339.558594 763.851562 1340.097656 764.398438 1340.777344 764.398438 L 1347.605469 764.398438 C 1348.285156 764.398438 1348.832031 763.851562 1348.832031 763.175781 C 1348.832031 762.496094 1348.285156 761.949219 1347.605469 761.949219 " fill-opacity="1" fill-rule="nonzero"/><path fill="#122d42" d="M 1363.042969 761.949219 L 1356.207031 761.949219 C 1355.535156 761.949219 1354.988281 762.496094 1354.988281 763.175781 C 1354.988281 763.851562 1355.535156 764.398438 1356.207031 764.398438 L 1363.042969 764.398438 C 1363.714844 764.398438 1364.261719 763.851562 1364.261719 763.175781 C 1364.261719 762.496094 1363.714844 761.949219 1363.042969 761.949219 " fill-opacity="1" fill-rule="nonzero"/><path fill="#122d42" d="M 1378.472656 761.949219 L 1371.640625 761.949219 C 1370.96875 761.949219 1370.421875 762.496094 1370.421875 763.175781 C 1370.421875 763.851562 1370.96875 764.398438 1371.640625 764.398438 L 1378.472656 764.398438 C 1379.148438 764.398438 1379.695312 763.851562 1379.695312 763.175781 C 1379.695312 762.496094 1379.148438 761.949219 1378.472656 761.949219 " fill-opacity="1" fill-rule="nonzero"/><path fill="#122d42" d="M 1393.90625 761.949219 L 1387.078125 761.949219 C 1386.398438 761.949219 1385.851562 762.496094 1385.851562 763.175781 C 1385.851562 763.851562 1386.398438 764.398438 1387.078125 764.398438 L 1393.90625 764.398438 C 1394.578125 764.398438 1395.125 763.851562 1395.125 763.175781 C 1395.125 762.496094 1394.578125 761.949219 1393.90625 761.949219 " fill-opacity="1" fill-rule="nonzero"/><path fill="#122d42" d="M 1347.605469 774.625 L 1340.777344 774.625 C 1340.097656 774.625 1339.558594 775.171875 1339.558594 775.851562 C 1339.558594 776.527344 1340.097656 777.074219 1340.777344 777.074219 L 1347.605469 777.074219 C 1348.285156 777.074219 1348.832031 776.527344 1348.832031 775.851562 C 1348.832031 775.171875 1348.285156 774.625 1347.605469 774.625 " fill-opacity="1" fill-rule="nonzero"/><path fill="#122d42" d="M 1363.042969 774.625 L 1356.207031 774.625 C 1355.535156 774.625 1354.988281 775.171875 1354.988281 775.851562 C 1354.988281 776.527344 1355.535156 777.074219 1356.207031 777.074219 L 1363.042969 777.074219 C 1363.714844 777.074219 1364.261719 776.527344 1364.261719 775.851562 C 1364.261719 775.171875 1363.714844 774.625 1363.042969 774.625 " fill-opacity="1" fill-rule="nonzero"/><path fill="#122d42" d="M 1378.472656 774.625 L 1371.640625 774.625 C 1370.96875 774.625 1370.421875 775.171875 1370.421875 775.851562 C 1370.421875 776.527344 1370.96875 777.074219 1371.640625 777.074219 L 1378.472656 777.074219 C 1379.148438 777.074219 1379.695312 776.527344 1379.695312 775.851562 C 1379.695312 775.171875 1379.148438 774.625 1378.472656 774.625 " fill-opacity="1" fill-rule="nonzero"/><path fill="#122d42" d="M 1393.90625 774.625 L 1387.078125 774.625 C 1386.398438 774.625 1385.851562 775.171875 1385.851562 775.851562 C 1385.851562 776.527344 1386.398438 777.074219 1387.078125 777.074219 L 1393.90625 777.074219 C 1394.578125 777.074219 1395.125 776.527344 1395.125 775.851562 C 1395.125 775.171875 1394.578125 774.625 1393.90625 774.625 " fill-opacity="1" fill-rule="nonzero"/><path fill="#122d42" d="M 1347.605469 787.304688 L 1340.777344 787.304688 C 1340.097656 787.304688 1339.558594 787.847656 1339.558594 788.527344 C 1339.558594 789.199219 1340.097656 789.75 1340.777344 789.75 L 1347.605469 789.75 C 1348.285156 789.75 1348.832031 789.199219 1348.832031 788.527344 C 1348.832031 787.847656 1348.285156 787.304688 1347.605469 787.304688 " fill-opacity="1" fill-rule="nonzero"/><path fill="#122d42" d="M 1363.042969 787.304688 L 1356.207031 787.304688 C 1355.535156 787.304688 1354.988281 787.847656 1354.988281 788.527344 C 1354.988281 789.199219 1355.535156 789.75 1356.207031 789.75 L 1363.042969 789.75 C 1363.714844 789.75 1364.261719 789.199219 1364.261719 788.527344 C 1364.261719 787.847656 1363.714844 787.304688 1363.042969 787.304688 " fill-opacity="1" fill-rule="nonzero"/><path fill="#122d42" d="M 1378.472656 787.304688 L 1371.640625 787.304688 C 1370.96875 787.304688 1370.421875 787.847656 1370.421875 788.527344 C 1370.421875 789.199219 1370.96875 789.75 1371.640625 789.75 L 1378.472656 789.75 C 1379.148438 789.75 1379.695312 789.199219 1379.695312 788.527344 C 1379.695312 787.847656 1379.148438 787.304688 1378.472656 787.304688 " fill-opacity="1" fill-rule="nonzero"/><path fill="#122d42" d="M 1393.90625 787.304688 L 1387.078125 787.304688 C 1386.398438 787.304688 1385.851562 787.847656 1385.851562 788.527344 C 1385.851562 789.199219 1386.398438 789.75 1387.078125 789.75 L 1393.90625 789.75 C 1394.578125 789.75 1395.125 789.199219 1395.125 788.527344 C 1395.125 787.847656 1394.578125 787.304688 1393.90625 787.304688 " fill-opacity="1" fill-rule="nonzero"/><path fill="#122d42" d="M 320.769531 204.179688 C 286.699219 221.746094 246.957031 225.789062 209.179688 226.710938 C 168.507812 227.753906 127.953125 225.09375 87.511719 221.398438 C 46.609375 217.585938 5.820312 212.847656 -35.199219 209.957031 C -55.59375 208.570312 -76.101562 207.761719 -96.613281 207.648438 C -115.847656 207.53125 -135.3125 207.417969 -154.550781 209.726562 C -173.898438 212.039062 -193.25 217.46875 -208.082031 230.757812 C -221.0625 242.425781 -230.445312 260.222656 -226.855469 277.898438 C -225.347656 285.292969 -213.761719 283.5625 -213.761719 276.167969 C -213.875 260.453125 -207.734375 247.164062 -195.570312 237.226562 C -181.894531 226.019531 -163.585938 222.089844 -146.554688 220.011719 C -107.851562 215.503906 -68.453125 217.007812 -29.636719 219.664062 C 49.160156 225.210938 127.722656 238.035156 206.863281 235.261719 C 247.1875 233.992188 287.976562 229.371094 323.085938 208.109375 C 325.636719 206.609375 323.433594 202.792969 320.769531 204.179688 Z M 320.769531 204.179688 " fill-opacity="1" fill-rule="nonzero"/><path fill="#122d42" d="M 305.472656 229.832031 C 270.941406 242.425781 235.253906 245.429688 198.753906 245.664062 C 196.78125 245.664062 196.085938 249.011719 198.289062 249.246094 C 234.789062 254.675781 272.796875 246.007812 306.285156 231.335938 C 306.980469 230.988281 306.398438 229.484375 305.472656 229.832031 Z M 305.472656 229.832031 " fill-opacity="1" fill-rule="nonzero"/><path fill="#122d42" d="M 1729.0625 120.746094 C 1694.996094 103.183594 1655.25 99.140625 1617.472656 98.214844 C 1576.800781 97.175781 1536.246094 99.832031 1495.804688 103.53125 C 1454.902344 107.34375 1414.113281 112.082031 1373.09375 114.96875 C 1352.699219 116.355469 1332.191406 117.164062 1311.679688 117.28125 C 1292.445312 117.394531 1272.980469 117.511719 1253.746094 115.199219 C 1234.394531 112.890625 1215.042969 107.457031 1200.210938 94.171875 C 1187.230469 82.5 1177.847656 64.707031 1181.4375 47.027344 C 1182.945312 39.632812 1194.53125 41.367188 1194.53125 48.761719 C 1194.417969 64.476562 1200.558594 77.761719 1212.726562 87.699219 C 1226.398438 98.90625 1244.707031 102.835938 1261.738281 104.917969 C 1300.441406 109.421875 1339.839844 107.921875 1378.65625 105.261719 C 1457.453125 99.714844 1536.015625 86.890625 1615.15625 89.664062 C 1655.480469 90.933594 1696.269531 95.558594 1731.378906 116.816406 C 1733.929688 118.320312 1731.726562 122.132812 1729.0625 120.746094 Z M 1729.0625 120.746094 " fill-opacity="1" fill-rule="nonzero"/><path fill="#122d42" d="M 1213.765625 115.316406 C 1200.441406 113.464844 1188.160156 107.113281 1178.890625 97.519531 C 1174.136719 92.667969 1170.082031 87.121094 1167.300781 81 C 1164.984375 76.144531 1160.695312 67.480469 1164.171875 62.511719 C 1165.796875 60.199219 1168.578125 59.851562 1170.664062 61.703125 C 1174.601562 65.054688 1174.023438 72.679688 1175.644531 77.53125 C 1177.5 83.078125 1180.164062 88.277344 1183.523438 93.015625 C 1191.054688 103.296875 1201.832031 110.808594 1214.113281 114.160156 C 1214.925781 114.277344 1214.578125 115.429688 1213.765625 115.316406 Z M 1213.765625 115.316406 " fill-opacity="1" fill-rule="nonzero"/><path fill="#122d42" d="M 571.808594 534.75 C 567.519531 512.371094 561.09375 490.296875 554.664062 468.226562 C 548.539062 447.074219 543.03125 425.921875 534.457031 405.691406 C 532.007812 399.867188 523.4375 404.15625 524.660156 409.980469 C 528.945312 432.359375 536.601562 454.125 543.03125 476.195312 C 549.152344 497.042969 555.582031 517.886719 564.460938 538.121094 C 566.601562 542.105469 572.417969 538.734375 571.808594 534.75 Z M 571.808594 534.75 " fill-opacity="1" fill-rule="nonzero"/><path fill="#122d42" d="M 709.574219 522.488281 C 716.308594 483.554688 717.839844 443.089844 718.757812 403.542969 C 719.0625 395.265625 706.511719 395.265625 705.898438 403.542969 C 702.835938 442.476562 698.246094 482.328125 701.304688 521.261719 C 701.304688 525.859375 708.652344 527.699219 709.574219 522.488281 Z M 709.574219 522.488281 " fill-opacity="1" fill-rule="nonzero"/><path fill="#122d42" d="M 841.214844 548.238281 C 861.726562 511.757812 880.09375 469.144531 890.503906 428.679688 C 891.726562 424.390625 885.605469 421.9375 883.460938 425.617188 C 862.339844 461.789062 845.5 505.011719 834.171875 545.171875 C 832.949219 549.464844 839.070312 552.222656 841.214844 548.238281 Z M 841.214844 548.238281 " fill-opacity="1" fill-rule="nonzero"/><path fill="#122d42" d="M 964.898438 588.089844 C 992.144531 569.695312 1016.636719 544.25 1039.289062 520.648438 C 1044.800781 514.824219 1036.535156 507.160156 1030.71875 512.0625 C 1005.921875 532.910156 979.589844 555.59375 959.386719 581.039062 C 956.632812 584.71875 960.304688 591.15625 964.898438 588.089844 Z M 964.898438 588.089844 " fill-opacity="1" fill-rule="nonzero"/><path fill="#122d42" d="M 1061.027344 682.8125 C 1072.355469 683.734375 1083.070312 678.523438 1093.476562 674.84375 C 1105.417969 670.859375 1117.050781 666.566406 1128.683594 661.96875 C 1137.5625 658.597656 1133.582031 644.496094 1124.703125 647.867188 C 1112.152344 652.464844 1099.601562 657.371094 1087.355469 662.582031 C 1077.558594 666.566406 1066.535156 669.632812 1058.882812 677.601562 C 1056.738281 679.441406 1058.269531 682.507812 1061.027344 682.8125 Z M 1061.027344 682.8125 " fill-opacity="1" fill-rule="nonzero"/><path fill="#122d42" d="M 399.753906 663.808594 C 378.019531 653.386719 355.976562 644.800781 333.320312 636.832031 C 323.523438 633.457031 319.238281 649.09375 329.035156 652.160156 C 351.6875 659.210938 374.039062 665.339844 397 670.246094 C 400.671875 670.859375 403.429688 665.648438 399.753906 663.808594 Z M 399.753906 663.808594 " fill-opacity="1" fill-rule="nonzero"/><path fill="#4f4557" d="M 389.652344 598.820312 C 365.773438 582.570312 341.28125 567.550781 316.789062 552.835938 C 309.136719 547.929688 302.09375 560.191406 309.746094 564.789062 C 334.546875 579.503906 359.34375 593.914062 384.753906 607.707031 C 390.570312 610.46875 395.160156 602.496094 389.652344 598.820312 Z M 389.652344 598.820312 " fill-opacity="1" fill-rule="nonzero"/><path fill="#4f4557" d="M 499.558594 519.421875 C 483.945312 480.488281 463.125 444.316406 443.53125 407.222656 C 439.859375 400.171875 428.835938 406.609375 432.816406 413.660156 C 452.71875 450.140625 471.699219 487.234375 495.269531 521.261719 C 496.496094 523.40625 500.78125 522.179688 499.558594 519.421875 Z M 499.558594 519.421875 " fill-opacity="1" fill-rule="nonzero"/><path fill="#4f4557" d="M 634.871094 486.3125 C 632.425781 449.21875 629.054688 412.433594 624.769531 375.648438 C 623.851562 368.289062 612.21875 367.984375 612.832031 375.648438 C 616.808594 413.046875 621.707031 450.140625 627.21875 487.234375 C 627.832031 491.832031 635.179688 490.605469 634.871094 486.3125 Z M 634.871094 486.3125 " fill-opacity="1" fill-rule="nonzero"/><path fill="#4f4557" d="M 791.617188 478.648438 C 800.496094 446.460938 809.070312 414.578125 816.109375 382.085938 C 817.640625 375.339844 807.539062 372.582031 805.703125 379.328125 C 797.4375 411.515625 790.699219 444.007812 783.964844 476.808594 C 783.351562 481.714844 790.394531 483.554688 791.617188 478.648438 Z M 791.617188 478.648438 " fill-opacity="1" fill-rule="nonzero"/><path fill="#4f4557" d="M 926.015625 526.777344 C 938.261719 513.289062 946.527344 495.511719 955.40625 479.570312 C 965.507812 462.09375 975 444.621094 984.796875 426.84375 C 988.46875 420.40625 978.980469 414.886719 975 421.015625 C 963.976562 437.878906 953.570312 455.042969 943.773438 472.519531 C 934.894531 488.152344 923.875 505.011719 919.585938 522.488281 C 918.667969 526.777344 923.261719 529.84375 926.015625 526.777344 Z M 926.015625 526.777344 " fill-opacity="1" fill-rule="nonzero"/><path fill="#4f4557" d="M 1036.535156 624.875 C 1068.984375 604.949219 1098.683594 578.890625 1128.070312 554.675781 C 1132.664062 550.996094 1126.542969 542.414062 1121.644531 546.089844 C 1091.027344 569.082031 1058.882812 591.460938 1031.636719 618.132812 C 1028.269531 621.503906 1032.554688 627.328125 1036.535156 624.875 Z M 1036.535156 624.875 " fill-opacity="1" fill-rule="nonzero"/><path fill="#122d42" d="M 451.492188 568.164062 C 429.144531 543.640625 407.101562 519.421875 382.609375 497.042969 C 377.097656 492.136719 369.445312 499.800781 374.648438 505.011719 C 396.691406 529.84375 420.878906 552.222656 445.371094 574.601562 C 449.347656 578.585938 455.472656 572.453125 451.492188 568.164062 Z M 451.492188 568.164062 " fill-opacity="1" fill-rule="nonzero"/></svg>